<svg xmlns="http://www.w3.org/2000/svg" height="40px" viewBox="0 -960 960 960" width="40px" fill="#5f6368"><path d="M480-120q-96.77 0-158.38-24.01Q260-168.03 260-205.38q0-18.44 18.29-35.49 18.3-17.05 50.74-28.9 6.1-2.56 12.73.23 6.62 2.8 9.19 8.9 2.56 6.1-.4 12.6t-9.06 8.55q-15.85 6.57-29.87 15.52-14.03 8.94-18.29 17.82 8.49 20.97 61.49 36.64 53 15.66 125.18 15.66t125.18-15.66q53-15.67 61.49-36.64-4.26-8.88-18.29-17.82-14.02-8.95-29.35-15.52-6.62-2.05-9.58-8.55-2.96-6.5-.4-12.6 2.57-6.1 9.19-8.9 6.63-2.79 12.73-.23 32.44 11.85 50.74 28.9Q700-223.82 700-205.38q0 37.35-61.62 61.37Q576.77-120 480-120Zm0-134.64q-8.72 0-17.69-3.21-8.98-3.2-16.62-8.84-103.13-84.21-154.41-164.14Q240-510.77 240-587.85q0-62.53 21.91-109.5 21.91-46.96 56.35-78.73 34.43-31.77 77.05-47.84Q437.92-840 480-840t84.77 16.08q42.69 16.07 77.31 47.84 34.61 31.77 56.27 78.73Q720-650.38 720-587.85q0 77.08-51.03 157.02-51.02 79.93-155.33 164.14-7.13 5.64-16.02 8.84-8.9 3.21-17.62 3.21Zm0-273.82q26.85 0 45.73-18.5 18.89-18.5 18.89-46.12 0-26.84-18.89-45.73-18.88-18.88-45.73-18.88-26.08 0-45.35 18.88-19.27 18.89-19.27 45.73 0 27.62 19.27 46.12 19.27 18.5 45.35 18.5Z"/></svg>